HIERARCHY
ROOT Hips
{
    OFFSET   0.000000   0.000000   0.000000
    CHANNELS 6 Xposition Yposition Zposition Zrotation Xrotation Yrotation
    JOINT Chest
    {
        OFFSET   0.000000   8.007230   0.000000
        CHANNELS 3 Zrotation Xrotation Yrotation
        JOINT Chest2
        {
            OFFSET   0.000000  22.077100   0.000000
            CHANNELS 3 Zrotation Xrotation Yrotation
            JOINT Neck
            {
                OFFSET   0.000000  23.255100   0.000000
                CHANNELS 3 Zrotation Xrotation Yrotation
                JOINT Head
                {
                    OFFSET   0.000000  14.370100   1.956600
                    CHANNELS 3 Zrotation Xrotation Yrotation
                    End Site
                    {
                        OFFSET   0.000000  19.566000   0.000000
                    }
                }
            }
            JOINT LeftCollar
            {
                OFFSET   3.911900  19.017000  -0.467063
                CHANNELS 3 Zrotation Xrotation Yrotation
                JOINT LeftShoulder
                {
                    OFFSET  10.383700   0.000000   0.000000
                    CHANNELS 3 Zrotation Xrotation Yrotation
                    JOINT LeftElbow
                    {
                        OFFSET  26.662100   0.001193   0.000980
                        CHANNELS 3 Zrotation Xrotation Yrotation
                        JOINT LeftWrist
                        {
                            OFFSET  28.869000  -0.000059  -0.000082
                            CHANNELS 3 Zrotation Xrotation Yrotation
                            JOINT LeftFinger0
                            {
                                OFFSET   2.044650  -2.323450   3.252850
                                CHANNELS 3 Zrotation Xrotation Yrotation
                                JOINT LeftFinger01
                                {
                                    OFFSET   3.088130   0.000000   0.000000
                                    CHANNELS 3 Zrotation Xrotation Yrotation
                                    JOINT LeftFinger02
                                    {
                                        OFFSET   2.639460   0.000000   0.000000
                                        CHANNELS 3 Zrotation Xrotation Yrotation
                                        End Site
                                        {
                                            OFFSET   2.582190   0.000000   0.000000
                                        }
                                    }
                                }
                            }
                            JOINT LeftFinger1
                            {
                                OFFSET   8.364480   0.000000   3.252850
                                CHANNELS 3 Zrotation Xrotation Yrotation
                                JOINT LeftFinger11
                                {
                                    OFFSET   4.646930   0.000000   0.000000
                                    CHANNELS 3 Zrotation Xrotation Yrotation
                                    JOINT LeftFinger12
                                    {
                                        OFFSET   2.323470   0.000000   0.000000
                                        CHANNELS 3 Zrotation Xrotation Yrotation
                                        End Site
                                        {
                                            OFFSET   2.273050   0.000000   0.000000
                                        }
                                    }
                                }
                            }
                            JOINT LeftFinger2
                            {
                                OFFSET   8.364490   0.000016   1.078090
                                CHANNELS 3 Zrotation Xrotation Yrotation
                                JOINT LeftFinger21
                                {
                                    OFFSET   5.111610   0.000000   0.000000
                                    CHANNELS 3 Zrotation Xrotation Yrotation
                                    JOINT LeftFinger22
                                    {
                                        OFFSET   2.788150   0.000016   0.000000
                                        CHANNELS 3 Zrotation Xrotation Yrotation
                                        End Site
                                        {
                                            OFFSET   2.727660   0.000000   0.000000
                                        }
                                    }
                                }
                            }
                            JOINT LeftFinger3
                            {
                                OFFSET   7.899780   0.000015  -1.078090
                                CHANNELS 3 Zrotation Xrotation Yrotation
                                JOINT LeftFinger31
                                {
                                    OFFSET   4.646930   0.000000   0.000000
                                    CHANNELS 3 Zrotation Xrotation Yrotation
                                    JOINT LeftFinger32
                                    {
                                        OFFSET   2.323470   0.000000   0.000000
                                        CHANNELS 3 Zrotation Xrotation Yrotation
                                        End Site
                                        {
                                            OFFSET   2.273050   0.000000   0.000000
                                        }
                                    }
                                }
                            }
                            JOINT LeftFinger4
                            {
                                OFFSET   7.435090   0.000000  -3.252850
                                CHANNELS 3 Zrotation Xrotation Yrotation
                                JOINT LeftFinger41
                                {
                                    OFFSET   3.717550   0.000000   0.000000
                                    CHANNELS 3 Zrotation Xrotation Yrotation
                                    JOINT LeftFinger42
                                    {
                                        OFFSET   1.858770   0.000000   0.000000
                                        CHANNELS 3 Zrotation Xrotation Yrotation
                                        End Site
                                        {
                                            OFFSET   1.818440   0.000000   0.000000
                                        }
                                    }
                                }
                            }
                        }
                    }
                }
            }
            JOINT RightCollar
            {
                OFFSET  -3.911910  19.017000  -0.467062
                CHANNELS 3 Zrotation Xrotation Yrotation
                JOINT RightShoulder
                {
                    OFFSET -10.383700   0.000014   0.000000
                    CHANNELS 3 Zrotation Xrotation Yrotation
                    JOINT RightElbow
                    {
                        OFFSET -26.662100   0.001225   0.001091
                        CHANNELS 3 Zrotation Xrotation Yrotation
                        JOINT RightWrist
                        {
                            OFFSET -28.869000  -0.000020  -0.000085
                            CHANNELS 3 Zrotation Xrotation Yrotation
                            JOINT RightFinger0
                            {
                                OFFSET  -2.044650  -2.323490   3.252850
                                CHANNELS 3 Zrotation Xrotation Yrotation
                                JOINT RightFinger01
                                {
                                    OFFSET  -3.088130   0.000000   0.000000
                                    CHANNELS 3 Zrotation Xrotation Yrotation
                                    JOINT RightFinger02
                                    {
                                        OFFSET  -2.639460   0.000000   0.000000
                                        CHANNELS 3 Zrotation Xrotation Yrotation
                                        End Site
                                        {
                                            OFFSET  -2.582190   0.000000   0.000000
                                        }
                                    }
                                }
                            }
                            JOINT RightFinger1
                            {
                                OFFSET  -8.364480   0.000000   3.252850
                                CHANNELS 3 Zrotation Xrotation Yrotation
                                JOINT RightFinger11
                                {
                                    OFFSET  -4.646930   0.000000   0.000000
                                    CHANNELS 3 Zrotation Xrotation Yrotation
                                    JOINT RightFinger12
                                    {
                                        OFFSET  -2.323470   0.000000   0.000000
                                        CHANNELS 3 Zrotation Xrotation Yrotation
                                        End Site
                                        {
                                            OFFSET  -2.273050   0.000000   0.000000
                                        }
                                    }
                                }
                            }
                            JOINT RightFinger2
                            {
                                OFFSET  -8.364480   0.000000   1.078090
                                CHANNELS 3 Zrotation Xrotation Yrotation
                                JOINT RightFinger21
                                {
                                    OFFSET  -5.111620   0.000000   0.000000
                                    CHANNELS 3 Zrotation Xrotation Yrotation
                                    JOINT RightFinger22
                                    {
                                        OFFSET  -2.788160   0.000000   0.000000
                                        CHANNELS 3 Zrotation Xrotation Yrotation
                                        End Site
                                        {
                                            OFFSET  -2.727660   0.000000   0.000000
                                        }
                                    }
                                }
                            }
                            JOINT RightFinger3
                            {
                                OFFSET  -7.899780   0.000000  -1.078090
                                CHANNELS 3 Zrotation Xrotation Yrotation
                                JOINT RightFinger31
                                {
                                    OFFSET  -4.646930   0.000000   0.000000
                                    CHANNELS 3 Zrotation Xrotation Yrotation
                                    JOINT RightFinger32
                                    {
                                        OFFSET  -2.323470   0.000000   0.000000
                                        CHANNELS 3 Zrotation Xrotation Yrotation
                                        End Site
                                        {
                                            OFFSET  -2.273050   0.000000   0.000000
                                        }
                                    }
                                }
                            }
                            JOINT RightFinger4
                            {
                                OFFSET  -7.435090   0.000000  -3.252850
                                CHANNELS 3 Zrotation Xrotation Yrotation
                                JOINT RightFinger41
                                {
                                    OFFSET  -3.717550   0.000000   0.000000
                                    CHANNELS 3 Zrotation Xrotation Yrotation
                                    JOINT RightFinger42
                                    {
                                        OFFSET  -1.858760   0.000000   0.000000
                                        CHANNELS 3 Zrotation Xrotation Yrotation
                                        End Site
                                        {
                                            OFFSET  -1.818440   0.000000   0.000000
                                        }
                                    }
                                }
                            }
                        }
                    }
                }
            }
        }
    }
    JOINT LeftHip
    {
        OFFSET   9.783030   0.000000   0.000000
        CHANNELS 3 Zrotation Xrotation Yrotation
        JOINT LeftKnee
        {
            OFFSET   0.000063 -41.789100   0.000608
            CHANNELS 3 Zrotation Xrotation Yrotation
            JOINT LeftAnkle
            {
                OFFSET   0.000048 -41.133200  -0.000184
                CHANNELS 3 Zrotation Xrotation Yrotation
                JOINT LeftToe
                {
                    OFFSET   0.000000  -6.358960  14.674500
                    CHANNELS 3 Zrotation Xrotation Yrotation
                    End Site
                    {
                        OFFSET   0.000000   0.000000   3.913200
                    }
                }
            }
        }
    }
    JOINT RightHip
    {
        OFFSET  -9.783030   0.000000   0.000000
        CHANNELS 3 Zrotation Xrotation Yrotation
        JOINT RightKnee
        {
            OFFSET   0.000071 -41.789100   0.001239
            CHANNELS 3 Zrotation Xrotation Yrotation
            JOINT RightAnkle
            {
                OFFSET   0.000037 -41.133200  -0.000166
                CHANNELS 3 Zrotation Xrotation Yrotation
                JOINT RightToe
                {
                    OFFSET   0.000000  -6.358960  14.674500
                    CHANNELS 3 Zrotation Xrotation Yrotation
                    End Site
                    {
                        OFFSET   0.000000   0.000000   3.913200
                    }
                }
            }
        }
    }
}
MOTION
Frames: 4
Frame Time:   0.016667
 -1.487000  89.635300   3.264640   1.450320 -11.817700   3.254200   1.181890   8.702010  -1.727840   2.682190  17.361500  -3.704530   1.262550  -3.684740   0.079248   2.102130  -7.461050   6.642360  -8.971480  -6.563900   2.114360 -60.149200  26.356900 -50.184400   1.135060 -13.353000 -97.755700   1.851840 -30.933800   1.927140  56.622900  53.266200 -105.289000  15.671300   0.001241  -0.000300  12.835600   0.003608  -0.002843 -31.993800   3.227370  -5.166400 -26.280000   0.029920   0.024705 -18.396000   0.015175   0.023834 -29.451200  -4.094590   7.358340 -36.118200  -0.001333  -0.008410 -24.054700   0.003331  -0.006498 -28.404100  -4.425310   8.076390 -36.268600   0.020682  -0.004517 -24.057200   0.020130   0.005025 -36.999400 -10.681500  14.043900 -57.416400   0.011285  -0.018111 -38.239200   0.018916  -0.004915  14.072300  -2.458540  19.134000  55.015400  21.738300  46.855100 -18.181900  -9.316680  95.478400 -82.194000  11.010800  68.160800 -50.757400  43.725900  87.378000   3.005780  -0.079726  -0.103126  -3.497120  -0.039437  -0.052014  34.564200   4.204370   7.675090  28.367700   0.025503  -0.066515  20.680700  -0.004339  -0.072022  30.553600  -0.489309  -0.911895  36.538800   0.055767  -0.100598  24.334900  -0.007862  -0.077400  26.822600  -5.561150 -10.984400  27.819100   0.002849  -0.000924  18.527500   0.002646   0.000047  41.723700  -7.553000  -8.465250  63.446700   0.029859   0.044864  42.255500   0.036834   0.006961   0.342486  12.435800   5.020990   1.265150   2.857530  11.999300  -5.877680  -3.428950  -0.154723  -0.000000   0.000000  -0.000000   2.132220  12.797700  -8.616890   0.431995   2.870350  -8.254320  -6.278930  -2.999170   0.437289   0.000000   0.000000   0.000000
 -1.479470  89.642700   3.289390   1.442690 -11.810900   3.221510   1.166070   8.665570  -1.701670   2.641430  17.290000  -3.647280   1.274970  -3.627860   0.078829   2.118260  -7.345690   6.642010  -8.900450  -6.387360   2.121340 -59.633900  26.441600 -50.329800   1.337210 -11.174600 -98.525900  -0.547575 -30.290100   0.916007  57.422300  53.638400 -106.282000  15.695000   0.001697  -0.000557  12.847500   0.003519  -0.002732 -30.666800   3.363970  -5.629690 -25.193700   0.072481   0.051054 -17.635600   0.037268   0.049535 -32.595900  -3.850130   6.168790 -44.636800  -0.034857  -0.018657 -29.728100  -0.011259  -0.024868 -30.651000  -4.723030   7.978920 -44.141200   0.011660  -0.011200 -29.137500   0.021576   0.005590 -42.416800 -11.119700  12.176100 -65.401800  -0.014444  -0.053164 -43.557600   0.023447  -0.031871  13.907200  -2.295760  19.065600  54.642400  22.055100  46.985200 -19.130200  -7.955040  94.571800 -80.144700  15.466900  65.512300 -49.352200  44.416100  88.888800   2.601830  -0.021329  -0.051902  -3.699130  -0.011628  -0.024281  43.954000   2.365030   4.336590  35.835900   0.087031  -0.145116  26.937700   0.005742  -0.165354  35.118700  -0.647280  -1.264930  47.513100   0.132899  -0.216554  31.643600  -0.008650  -0.169891  26.956900  -6.065940 -11.961600  28.207700   0.018187  -0.005338  18.786300   0.010506  -0.007052  43.410000  -8.143030  -8.272420  66.080400   0.077038   0.096343  44.009600   0.081324   0.012103   0.331447  12.416600   5.013890   1.261160   2.858940  12.022800  -5.864870  -3.432600  -0.136831  -0.000000   0.000000   0.000000   2.126930  12.797600  -8.609640   0.423667   2.857090  -8.254970  -6.264090  -2.992450   0.466340   0.000000   0.000000  -0.000000
 -1.482270  89.648200   3.306050   1.433990 -11.811600   3.183290   1.162270   8.601510  -1.674250   2.625260  17.163100  -3.588350   1.259610  -3.533240   0.076806   2.087640  -7.154500   6.614240  -8.843140  -6.038650   2.033720 -58.421800  26.827400 -50.913700   1.310270  -9.962760 -99.084300  -2.627800 -28.508600   0.246133  59.785500  54.682000 -109.189000  15.695700   0.002258  -0.000762  12.847800   0.003414  -0.002634 -31.635900   2.829040  -4.884720 -25.924000   0.089181   0.050255 -18.146800   0.048428   0.050333 -33.652000  -3.679060   5.569960 -49.628300  -0.037923  -0.025723 -33.052400  -0.011142  -0.030416 -35.026400  -5.602970   7.976070 -53.606800   0.039183   0.058801 -35.423600   0.012365   0.055574 -45.869500 -11.393300  10.965100 -70.426800  -0.014106  -0.056216 -46.904300   0.023438  -0.031848  13.807100  -2.131260  18.953500  53.633400  22.874000  47.658100 -20.273200  -7.887870  92.380700 -77.473200  18.833300  62.985500 -53.239600  45.030500  90.374500   2.085770  -0.008194  -0.017217  -3.957150  -0.004945  -0.004758  45.799900   1.674140   2.778910  37.385300   0.102254  -0.148703  28.022400   0.012583  -0.171054  36.282300   0.503065   0.772896  52.876700   0.131501  -0.208020  35.215800  -0.003923  -0.165284  26.633500  -5.789450 -11.520500  26.654900   0.046245  -0.024188  17.752100   0.024119  -0.025273  43.140600  -8.944290  -9.096570  65.802300   0.086746   0.088569  43.824400   0.080001   0.004015   0.323357  12.440600   5.000240   1.250790   2.847880  12.048200  -5.852770  -3.442860  -0.111001   0.000000   0.000000   0.000000   2.116320  12.798600  -8.591670   0.423848   2.855070  -8.251410  -6.250690  -2.987570   0.488712  -0.000000   0.000000  -0.000000
 -1.492800  89.650900   3.313950   1.424990 -11.813800   3.143070   1.164860   8.543890  -1.650170   2.625720  17.048000  -3.537790   1.222800  -3.433330   0.073291   2.029130  -6.952880   6.574660  -8.823980  -5.676020   1.870130 -57.050300  27.356700 -51.689000   1.215970  -9.460280 -99.407800  -4.414580 -26.651200  -0.246820  61.602700  55.374400 -111.425000  15.695900   0.002821  -0.000906  12.848000   0.003295  -0.002535 -33.251200   1.877180  -3.433120 -27.173600   0.094029   0.044663 -19.021500   0.052937   0.050447 -33.868400  -3.591300   5.328770 -51.917800  -0.038361  -0.029327 -34.577200  -0.010319  -0.031208 -38.079900  -6.239230   7.976090 -59.604900   0.066706   0.129404 -39.436400  -0.001334   0.105073 -47.477400 -11.585600  10.372200 -72.777700  -0.011743  -0.056651 -48.470000   0.023370  -0.031688  13.750400  -1.995220  18.840100  52.376800  23.806100  48.623000 -20.977600  -6.121920  90.441000 -75.159300  21.173900  60.538800 -57.769100  45.639100  91.868300   1.753720  -0.006318   0.000287  -4.123160  -0.003990   0.005315  46.073600   1.492530   2.198620  37.606700   0.104428  -0.149215  28.177400   0.016041  -0.171869  36.316700   2.131040   3.692840  54.972600   0.121716  -0.160431  36.611800   0.002509  -0.133037  26.388000  -5.301170 -10.650600  25.102100   0.065624  -0.039151  16.718000   0.033316  -0.038430  42.757900  -9.809390 -10.369100  65.524300   0.088133   0.062471  43.639200   0.070741  -0.009124   0.315990  12.464700   4.984950   1.243610   2.836820  12.075400  -5.838700  -3.457330  -0.083153   0.000000   0.000000  -0.000000   2.104540  12.801900  -8.572300   0.424648   2.854840  -8.241990  -6.239330  -2.985380   0.505663  -0.000000   0.000000   0.000000
